<?xml version="1.0" standalone="no"?>
<!DOCTYPE svg PUBLIC "-//W3C//DTD SVG 20010904//EN"
 "http://www.w3.org/TR/2001/REC-SVG-20010904/DTD/svg10.dtd">
<svg version="1.0" xmlns="http://www.w3.org/2000/svg"
 width="195.000000pt" height="195.000000pt" viewBox="0 0 195.000000 195.000000"
 preserveAspectRatio="xMidYMid meet">
<metadata>
Created by potrace 1.14, written by Peter Selinger 2001-2017
</metadata>
<g transform="translate(0.000000,195.000000) scale(0.100000,-0.100000)"
fill="#000000" stroke="none">
<path d="M716 1375 c-8 -8 -21 -15 -28 -15 -18 -1 -42 -22 -46 -40 -2 -8 -12
-20 -23 -28 -55 -39 -109 -131 -109 -188 0 -18 -7 -44 -15 -60 -8 -16 -11 -31
-7 -34 4 -3 8 -45 8 -95 1 -168 60 -285 166 -329 55 -23 162 -21 215 5 113 55
179 230 153 404 -4 24 -3 48 2 53 6 6 3 16 -6 25 -9 9 -16 20 -16 26 0 6 -9
35 -21 66 -21 56 -97 145 -125 145 -8 0 -19 11 -24 24 -6 18 -20 27 -45 32
-19 3 -38 10 -41 15 -8 13 -21 11 -38 -6z m48 -104 c-12 -12 -34 -7 -39 9 -8
26 -2 84 10 92 10 7 39 -91 29 -101z m58 70 c4 -3 9 -20 12 -38 3 -17 10 -42
16 -55 8 -19 9 -16 4 15 -4 20 -2 37 3 37 5 0 27 -15 49 -34 61 -52 116 -183
76 -183 -76 0 -124 -4 -118 -10 6 -6 34 -6 125 0 13 1 26 -4 28 -10 3 -9 -8
-13 -36 -14 -23 -1 -50 -3 -61 -4 -11 -1 -47 -3 -80 -4 -33 0 -60 -4 -60 -8 0
-5 26 -7 59 -5 57 4 59 3 64 -24 2 -15 5 -60 5 -100 0 -136 -71 -227 -163
-210 -51 10 -99 60 -114 120 -12 51 -15 175 -3 193 4 7 36 13 75 14 37 1 67 6
67 11 0 5 -10 6 -22 4 -55 -12 -248 -17 -248 -7 0 6 6 11 14 11 11 0 13 9 9
34 -8 51 24 131 72 178 39 40 40 40 46 17 6 -20 7 -17 8 13 1 39 22 68 49 68
14 0 16 -8 14 -49 l-4 -50 36 2 36 2 -7 54 c-6 53 -6 53 18 46 13 -4 27 -10
31 -14z"/>
<path d="M630 1229 c0 -5 5 -7 10 -4 6 3 10 8 10 11 0 2 -4 4 -10 4 -5 0 -10
-5 -10 -11z"/>
<path d="M550 1151 c-5 -11 -10 -31 -10 -45 l0 -26 77 6 c43 3 80 8 83 11 3 3
-30 3 -72 1 -84 -5 -87 -3 -68 46 11 30 5 34 -10 7z"/>
<path d="M819 1076 c-4 -4 -186 -15 -246 -16 -18 0 -33 -5 -33 -11 0 -5 3 -8
8 -6 4 3 68 8 142 12 74 4 137 9 139 11 6 5 -4 15 -10 10z"/>
<path d="M6 928 c1 -183 2 -338 3 -343 1 -9 90 -13 121 -6 3 0 5 153 5 339 l0
337 -65 3 -66 3 2 -333z m119 311 c3 -4 -2 -15 -11 -23 -8 -9 -11 -16 -6 -16
18 0 21 -29 6 -45 -13 -13 -14 -15 -1 -15 18 0 16 -32 -3 -38 -10 -4 -10 -6 1
-12 7 -5 14 -16 15 -24 2 -16 -7 -20 -35 -17 -7 2 -10 -3 -6 -9 3 -6 14 -9 22
-8 10 2 17 -5 18 -20 1 -15 -3 -21 -12 -18 -18 7 -16 -4 3 -19 15 -10 15 -13
-1 -28 -12 -13 -13 -17 -3 -17 8 0 14 -11 14 -25 0 -17 -4 -24 -13 -21 -9 4
-8 -2 3 -19 9 -14 12 -26 8 -27 -5 0 -13 -2 -19 -3 -5 -2 -14 -4 -20 -5 -5 -1
1 -5 14 -9 28 -8 38 -41 13 -41 -16 -1 -16 -1 0 -10 18 -11 17 -47 -1 -42 -15
3 -14 -15 1 -20 17 -6 19 -38 1 -38 -12 0 -12 -2 1 -16 20 -19 12 -34 -17 -34
-19 -1 -18 -3 8 -15 17 -7 23 -14 15 -15 -52 -7 -92 -5 -97 4 -4 6 -7 156 -7
333 l-1 323 53 -1 c29 -1 55 -6 57 -10z"/>
<path d="M170 1095 l0 -165 35 0 34 0 3 101 3 102 63 -102 c60 -96 65 -101 98
-101 28 0 34 4 35 23 0 12 2 86 2 165 l2 143 -35 -3 -35 -3 0 -97 c0 -93 -7
-120 -22 -80 -4 9 -31 54 -60 100 -50 77 -55 82 -88 82 l-35 0 0 -165z"/>
<path d="M1010 1255 c0 -3 12 -49 26 -103 14 -53 27 -104 29 -112 2 -8 17 -67
34 -130 17 -63 43 -162 59 -220 l27 -105 73 -3 c39 -2 72 -1 72 1 0 4 56 215
115 437 26 96 51 190 55 208 l8 32 -64 0 -63 0 -11 -40 c-5 -22 -15 -59 -21
-82 -6 -24 -13 -50 -15 -58 -2 -8 -19 -75 -39 -149 -33 -127 -45 -162 -45
-130 0 8 -25 114 -56 237 l-57 222 -64 0 c-34 0 -63 -2 -63 -5z"/>
<path d="M1586 1148 c-19 -62 -62 -203 -96 -313 -33 -110 -65 -212 -70 -227
l-9 -28 64 0 64 0 11 43 c6 23 16 57 21 75 l11 33 101 -3 100 -3 20 -72 19
-73 65 0 c48 0 64 3 61 13 -2 6 -49 159 -103 340 l-99 327 -62 0 -63 0 -35
-112z m129 -183 c14 -49 28 -97 31 -106 3 -13 -7 -16 -61 -16 -46 0 -65 3 -65
12 0 13 45 175 56 205 7 18 7 20 39 -95z"/>
<path d="M167 897 c-2 -7 -3 -82 -3 -167 l1 -155 38 -3 c25 -2 37 1 38 10 1 7
1 53 1 103 l0 89 44 -68 c24 -38 52 -84 63 -102 18 -30 25 -34 61 -34 l40 0
-2 167 -3 167 -37 2 -37 1 -3 -101 c-3 -96 -4 -100 -18 -74 -38 68 -102 168
-108 169 -54 7 -71 6 -75 -4z m82 -25 c9 -11 34 -51 56 -87 75 -126 74 -126
75 1 0 120 -4 112 51 105 3 -1 6 -70 5 -153 l-1 -153 -30 0 c-26 0 -35 10 -92
100 -34 55 -67 101 -73 103 -6 2 -10 -33 -10 -102 l0 -106 -25 0 c-14 0 -25 3
-26 8 -2 16 -5 297 -3 302 6 14 59 1 73 -18z"/>
</g>
</svg>
